<svg width="20" height="20" viewBox="0 0 20 20" fill="none" xmlns="http://www.w3.org/2000/svg">
  <circle cx="10" cy="10" r="9" stroke="white" stroke-width="1.5" fill="none"/>
  <circle cx="10" cy="9" r="3.5" fill="white"/>
  <path d="M6 7.5C6 5.5 7.5 4 10 4C12.5 4 14 5.5 14 7.5" stroke="white" stroke-width="1.2" fill="none"/>
  <circle cx="5.5" cy="8" r="1.2" fill="white"/>
  <circle cx="14.5" cy="8" r="1.2" fill="white"/>
  <circle cx="8" cy="9" r="0.6" fill="#333"/>
  <circle cx="12" cy="9" r="0.6" fill="#333"/>
  <path d="M9 11.5C9 11.5 9.5 12 10 12C10.5 12 11 11.5 11 11.5" stroke="#333" stroke-width="0.6" stroke-linecap="round"/>
  <path d="M10 13L8.5 12.5V14.5L10 14M10 13L11.5 12.5V14.5L10 14" stroke="white" stroke-width="0.8" stroke-linecap="round"/>
</svg>